<svg height="100%" width="100%" viewBox="0 0 128 128" xmlns="http://www.w3.org/2000/svg"><path fill="currentColor" d="M64.281 84.291c-15.54 0-28.184-12.643-28.184-28.184V42.196c0-15.542 12.644-28.186 28.184-28.186 15.542 0 28.186 12.644 28.186 28.186v13.911c0 15.541-12.644 28.184-28.186 28.184zm0-66.281c-13.335 0-24.184 10.85-24.184 24.186v13.911c0 13.334 10.849 24.184 24.184 24.184 13.336 0 24.186-10.85 24.186-24.184V42.196c0-13.336-10.85-24.186-24.186-24.186z"/><path fill="currentColor" d="M102.332 114.01h-76.51c-6.518 0-11.819-5.303-11.819-11.82v-8.734c0-3.857 1.953-9.027 11.26-11.738l11.443-3.168a2 2 0 011.066 3.856l-11.417 3.16c-8.353 2.434-8.353 6.541-8.353 7.891v8.734c0 4.313 3.508 7.82 7.819 7.82h76.51c4.312 0 7.819-3.508 7.819-7.82v-8.734c0-3.643-2.816-6.299-8.372-7.896l-10.892-3.045a2 2 0 01-1.388-2.465 1.995 1.995 0 012.464-1.387l10.906 3.049c9.326 2.682 11.281 7.867 11.281 11.744v8.734c.002 6.516-5.299 11.819-11.817 11.819z"/></svg>
