

<svg width="100%" height=="100%" viewBox="0 0 26 26" xmlns="http://www.w3.org/2000/svg"><path fill="currentColor" d="M17.31 5.495v-.284a.75.75 0 00-.75-.75H1.75a.75.75 0 00-.75.75v13.578c0 .414.336.75.75.75h3.095c.328 1.15 1.378 2 2.633 2s2.304-.85 2.632-2h7.708c.33 1.15 1.378 2 2.633 2s2.304-.85 2.633-2h.994c.031 0 .057-.014.087-.018.03.004.056.018.087.018a.75.75 0 00.75-.75v-5.74c0-3.956-3.387-7.211-7.69-7.554zm6.162 7.054h-2.817c-.718-.196-.864-1.484-.864-3.488V7.665c2.044.948 3.483 2.763 3.681 4.884zm-4.681-5.26v1.772c0 2.174.13 4.152 1.704 4.478.033.007.068.01.102.01H23.5v4.49h-.418c-.329-1.15-1.378-2-2.633-2s-2.304.85-2.633 2H10.11A2.73 2.73 0 009.548 17h7.013c.2 0 .372-.12.451-.292a.737.737 0 00.299-.583V6.998c.512.049 1.007.15 1.48.291zM15.811 16H2.499V5.96h13.312V16zM2.499 17h2.906a2.73 2.73 0 00-.561 1.04H2.499V17zm4.978 3.04a1.251 1.251 0 010-2.5c.688 0 1.248.558 1.25 1.247l-.001.002v.003a1.25 1.25 0 01-1.25 1.247zm12.973 0a1.251 1.251 0 010-2.5 1.251 1.251 0 010 2.5z"/></svg>
