<svg xmlns="http://www.w3.org/2000/svg" viewBox="0 0 512 512"><path fill="currentColor" d="M511.636 43.789c-1.81-8.106-9.851-13.211-17.952-11.402l-89.467 19.964c-.122.027-.237.069-.358.099-.317.079-.632.161-.942.261-.207.065-.406.141-.608.216a13.81 13.81 0 00-.74.288c-.236.1-.463.212-.692.323-.201.099-.403.198-.6.306-.239.13-.47.27-.7.412-.184.113-.366.228-.544.349-.217.147-.426.302-.634.46-.185.14-.369.284-.547.433-.181.151-.356.309-.529.468-.193.176-.381.356-.564.542-.145.148-.285.301-.423.454-.191.213-.379.428-.559.652a13.92 13.92 0 00-.346.454c-.175.236-.347.474-.508.722a14.84 14.84 0 00-.314.51c-.143.239-.284.478-.414.726-.111.212-.213.429-.314.646s-.203.431-.294.654c-.114.278-.213.561-.311.847-.046.135-.104.263-.146.4l-18.71 60.287H28.688c-9.206 0-17.616 4.251-23.076 11.662-5.46 7.411-7.027 16.704-4.298 25.496l49.375 159.099c3.744 12.062 14.745 20.166 27.374 20.166h229.19l-4.432 14.282H47.137c-8.305 0-15.039 6.733-15.039 15.039 0 8.305 6.733 15.039 15.039 15.039h264.572c.33 0 .653-.028.977-.049.407.033.813.053 1.217.053 6.414 0 12.357-4.137 14.358-10.585l16.741-53.943v-.001l10.786-34.753L419.27 79.811l80.962-18.067c8.109-1.811 13.213-9.849 11.404-17.955zM126.573 309.204H79.106l-19.11-61.575h66.577v61.575zm0-91.652H50.661l-20.053-64.615h95.964v64.615zm109.281 91.652H156.65v-61.575h79.204v61.575zm0-91.652H156.65v-64.615h79.204v64.615zm94.682 46.701l-13.95 44.951h-50.654v-61.575h69.764l-5.16 16.624zm14.494-46.701h-79.099v-64.615h99.151l-20.052 64.615zM109.606 390.619c-24.635 0-44.678 20.043-44.678 44.679s20.043 44.679 44.678 44.679c24.636 0 44.679-20.043 44.679-44.679s-20.042-44.679-44.679-44.679zm0 59.281c-8.051 0-14.601-6.55-14.601-14.602s6.55-14.602 14.601-14.602c8.052 0 14.602 6.55 14.602 14.602s-6.55 14.602-14.602 14.602zM258.991 390.619c-24.635 0-44.678 20.043-44.678 44.679s20.043 44.679 44.678 44.679c24.636 0 44.679-20.043 44.679-44.679s-20.043-44.679-44.679-44.679zm0 59.281c-8.051 0-14.601-6.55-14.601-14.602s6.55-14.602 14.601-14.602c8.052 0 14.602 6.55 14.602 14.602-.001 8.052-6.551 14.602-14.602 14.602z"/></svg>
