<svg height="100%" width="100%" viewBox="0 0 128 128" xmlns="http://www.w3.org/2000/svg"><path fill="currentColor" d="M99.258 114.97H75.254a2 2 0 01-2-2V80.49H55.065v32.479a2 2 0 01-2 2H29.062a2 2 0 01-2-2V62.088c0-.522.204-1.023.568-1.396L62.825 24.61a2 2 0 011.432-.604h.003a2 2 0 011.433.607l35.001 36.081a2 2 0 01.564 1.393v50.882a2 2 0 01-2 2.001zm-22.004-4h20.004V62.898L64.253 28.875 31.062 62.902v48.067h20.004V78.49a2 2 0 012-2h22.188a2 2 0 012 2v32.48z"/><path fill="currentColor" d="M18.039 63.863a2 2 0 01-1.441-3.388l46.046-47.794c.375-.39.893-.61 1.433-.612a1.916 1.916 0 011.438.602l45.94 46.991a2 2 0 01-2.859 2.796l-44.5-45.517L19.479 63.25a1.991 1.991 0 01-1.44.613z"/><path fill="currentColor" d="M36.4 44.805a2 2 0 01-2-2V20a2 2 0 014 0v22.805a2 2 0 01-2 2z"/></svg>
