<svg height="100%" width="100%" viewBox="0 0 128 128" xmlns="http://www.w3.org/2000/svg"><path fill="currentColor" d="M112.006 42.515a2 2 0 01-2-2v-7.471c0-.581-.49-1.072-1.07-1.072h-58.76c-2.247 0-5.097-1.238-6.629-2.879l-1.778-1.904c-.771-.828-2.572-1.609-3.704-1.609H19.101c-.591 0-1.071.48-1.071 1.07v13.865a2 2 0 01-4 0V26.65a5.076 5.076 0 015.071-5.07h18.964c2.246 0 5.096 1.237 6.628 2.879l1.778 1.904c.772.828 2.572 1.609 3.705 1.609h58.76a5.077 5.077 0 015.07 5.072v7.471a2 2 0 01-2 2zM108.936 106.024H19.101a5.076 5.076 0 01-5.071-5.069V54.841a5.077 5.077 0 015.071-5.071h89.835a5.076 5.076 0 015.07 5.071v46.114a5.076 5.076 0 01-5.07 5.069zM19.101 53.77c-.591 0-1.071.48-1.071 1.071v46.114c0 .59.48 1.069 1.071 1.069h89.835c.58 0 1.07-.489 1.07-1.069V54.841c0-.581-.49-1.071-1.07-1.071H19.101z"/></svg>
