<svg xmlns="http://www.w3.org/2000/svg" width="602" height="103" viewBox="0 0 602 103" shape-rendering="geometricPrecision" text-rendering="geometricPrecision" image-rendering="optimizeQuality" fill-rule="evenodd" clip-rule="evenodd"><defs><style>.fil0{fill:#2b2a29;fill-rule:nonzero}</style></defs>
<g id="Слой_x0020_1"><g id="_202097960">
<path class="fil0" d="M2 38h10l2-8h15l3 8h12L29 0H16L2 38zm25-15H17l5-15 5 15zm20 15h17c5 0 5-1 7-1 5-1 8-5 8-9 0-6-4-9-9-10 4-1 8-3 8-8 0-7-7-10-13-10H47v38zm10-23V7h6c3 0 5 1 5 4s-2 4-5 4h-6zm0 16v-9h6c3 0 5 1 5 4 0 4-2 5-5 5h-6zm36 7h11V8h11V0H82v8h11v30zm25-19c0 12 7 19 19 19s19-7 19-19-7-19-19-19-19 7-19 19zm10 0c0-8 3-12 9-12s9 4 9 12-3 12-9 12-9-4-9-12zm34 19h9V6l8 32h9l9-32v32h9V0h-16l-6 26-6-26h-16v38zm50-19c0 12 8 19 19 19 13 0 20-7 20-19s-7-19-19-19c-13 0-20 7-20 19zm11 0c0-8 3-12 9-12 5 0 8 4 8 12s-3 12-8 12c-6 0-9-4-9-12zm44 11v-8h6c3 0 5 2 5 4 0 3-2 4-5 4h-6zm21-3c0-9-6-12-13-12h-8V8h18V0h-28v38h18c3 0 13-1 13-11zm17 11l12-24v24h10V0h-11l-12 24V0h-10v38h11zm62-38h-29v14c0 14-3 17-5 17-1 0-1-1-2-1v7c1 1 3 1 5 1 8 0 12-4 12-23V8h9v30h10V0zm39 26c0-4-1-7-3-9-4-3-8-3-12-3h-6V0h-11v38h17c5 0 6-1 8-1 5-2 7-6 7-11zm-10 0c0 4-3 4-7 4h-4v-9h4c4 0 7 0 7 5zm15 12h11V22h12v16h11V0h-11v15h-12V0h-11v38zm39-19c0 12 7 19 19 19s20-7 20-19-7-19-19-19c-13 0-20 7-20 19zm11 0c0-8 3-12 8-12 6 0 9 4 9 12s-3 12-9 12c-5 0-8-4-8-12zm68-7c0-8-6-12-17-12-5 0-9 1-12 3-5 4-7 10-7 16 0 12 7 19 19 19 9 0 17-3 17-12h-11c0 3-2 5-6 5-5 0-8-4-8-11 0-9 3-13 8-13 4 0 6 2 6 5h11zm14 26h10V8h12V0h-33v8h11v30zm58-12c0-4-1-7-3-9-4-3-8-3-12-3h-6V0h-11v38h17c4 0 6-1 8-1 4-2 7-6 7-11zm-10 0c0 4-3 4-7 4h-4v-9h4c4 0 7 0 7 5z"/>
<path d="M1 80c0 13 10 23 23 23 12 0 22-10 22-23 0-12-10-22-22-22C11 58 1 68 1 80z" fill="#e31e24"/>
<path d="M59 80c0 13 10 23 22 23 13 0 22-10 22-23 0-12-9-22-22-22-12 0-22 10-22 22z" fill="#006ead"/>
<path d="M117 80c0 13 10 23 22 23s22-10 22-23c0-12-10-22-22-22s-22 10-22 22z" fill="#2b2a29"/>
<path class="fil0" d="M194 97V68h-11v-4h27v4h-11v29h-5zm29 0V64h4v14h17V64h5v33h-5V82h-17v15h-4zm42 0V64h20v4h-16v10h15v4h-15v11h16v4h-20zm32-14h11v3h-11v-3zm26 14V64h11c4 0 6 1 8 3 2 1 3 4 3 7 0 2-1 5-3 6-2 2-4 3-8 3h-7v14h-4zm4-18h7c2 0 4 0 5-1s2-3 2-4c0-2-1-4-2-5s-3-1-5-1h-7v11zm29 18l13-33h5l13 33h-5l-3-9h-15l-4 9h-4zm15-29l-6 17h13l-7-17zm30 29V64h13c3 0 5 1 7 2 2 2 3 4 3 7 0 2-1 4-3 6-1 1-2 1-3 1 1 1 2 1 3 2 1 0 1 2 2 5 0 2 0 3 1 5v3c1 1 1 1 1 2h-5c0-1 0-2-1-3v-6l-1-1c0-2-1-3-1-4-1 0-3-1-5-1h-7v15h-4zm4-19h8c2 0 4 0 5-1s2-2 2-4c0-1-1-3-2-4-2-1-4-1-6-1h-7v10zm42 19V68h-11v-4h26v4h-10v29h-5zm47-25c0-1-1-2-2-3s-3-2-5-2-4 1-5 2c-2 1-2 2-2 4 0 1 0 2 1 2 1 1 2 2 3 2l7 2c3 0 5 1 7 3 1 1 2 3 2 5 0 3-2 6-4 8-2 1-5 2-9 2s-6-1-9-2c-2-2-3-4-3-8h4c0 2 1 4 2 5 2 1 4 2 6 2 3 0 5-1 6-2s2-3 2-4c0-2 0-3-1-3-1-1-2-2-4-2l-6-2c-3 0-5-1-7-3-1-1-2-3-2-5 0-3 1-5 4-7 2-2 5-2 8-2 4 0 7 0 9 2 1 1 3 4 3 6h-5zm21 19h5v6h-5v-6zm22 6V64h13c4 0 6 1 8 2 2 2 3 4 3 7 0 2-1 4-3 6-1 1-2 1-4 1 2 1 3 1 4 2 1 0 1 2 2 5v5l1 1v2c0 1 1 1 1 2h-5c0-1-1-2-1-3 0-2 0-3-1-6v-1c0-2-1-3-2-4-1 0-2-1-4-1h-7v15h-5zm5-19h8c2 0 3 0 5-1 1-1 1-2 1-4 0-1 0-3-1-4-2-1-4-1-7-1h-6v10zm59 6c0 4-1 8-3 10-3 2-6 3-10 3s-7-1-9-3-4-6-4-10V64h5v20c0 3 1 5 2 7 2 2 4 3 6 3 3 0 5-1 7-3 1-2 2-4 2-7V64h4v20z"/>
</g></g></svg>
